<svg id="Layer_1" data-name="Layer 1" xmlns="http://www.w3.org/2000/svg" xmlns:xlink="http://www.w3.org/1999/xlink" viewBox="0 0 225.34 225.34"><defs><style>.cls-1{fill:url(#radial-gradient);}.cls-2{font-size:15.5px;fill:#171717;font-family:Montserrat-SemiBold, Montserrat;font-weight:600;}</style><radialGradient id="radial-gradient" cx="112.67" cy="112.67" r="115.59" gradientUnits="userSpaceOnUse"><stop offset="0" stop-color="#55459c"/><stop offset="0.1" stop-color="#7a6eb0" stop-opacity="0.76"/><stop offset="0.22" stop-color="#a49cc7" stop-opacity="0.49"/><stop offset="0.35" stop-color="#c5c1da" stop-opacity="0.28"/><stop offset="0.46" stop-color="#dddbe6" stop-opacity="0.12"/><stop offset="0.57" stop-color="#ebebee" stop-opacity="0.03"/><stop offset="0.66" stop-color="#f0f0f1" stop-opacity="0"/></radialGradient></defs><circle class="cls-1" cx="112.67" cy="112.67" r="80.86"/><text class="cls-2" transform="translate(35.78 114.32) rotate(-86.5)">H</text><text class="cls-2" transform="translate(37.05 100) rotate(-78.57)">I</text><text class="cls-2" transform="translate(38.26 93.29) rotate(-70.66)">D</text><text class="cls-2" transform="translate(43.33 79.64) rotate(-60.71)">E</text><text class="cls-2" transform="translate(49.59 69.08) rotate(-53.76)"> </text><text class="cls-2" transform="matrix(0.69, -0.73, 0.73, 0.69, 53.17, 64.04)">&amp;</text><text class="cls-2" transform="matrix(0.77, -0.64, 0.64, 0.77, 62.21, 54.95)"> </text><text class="cls-2" transform="translate(66.94 50.99) rotate(-32.88)">S</text><text class="cls-2" transform="translate(76.66 44.74) rotate(-23.27)">H</text><text class="cls-2" transform="translate(89.83 39.23) rotate(-12.46)">O</text><text class="cls-2" transform="translate(103.91 36.01) rotate(0.09)">W</text><text class="cls-2" transform="matrix(0.99, 0.17, -0.17, 0.99, 123.37, 36.76)"> </text><text class="cls-2" transform="translate(129.49 37.77) rotate(16.17)">T</text><text class="cls-2" transform="translate(140.19 40.88) rotate(25.58)">H</text><text class="cls-2" transform="matrix(0.81, 0.58, -0.58, 0.81, 152.98, 47.28)">E</text><text class="cls-2" transform="translate(162.78 54.64) rotate(42.45)"> </text><text class="cls-2" transform="matrix(0.66, 0.75, -0.75, 0.66, 167.38, 58.8)">T</text><text class="cls-2" transform="matrix(0.53, 0.85, -0.85, 0.53, 174.34, 66.81)">A</text><text class="cls-2" transform="translate(181.36 78.2) rotate(67.72)">B</text><text class="cls-2" transform="translate(186.3 90.86) rotate(77.09)">S</text><text class="cls-2" transform="translate(188.64 102.27) rotate(83.77)"> </text><text class="cls-2" transform="translate(189.45 108.36) rotate(91.49)">H</text><text class="cls-2" transform="translate(188.69 122.75) rotate(99.47)">I</text><text class="cls-2" transform="matrix(-0.29, 0.96, -0.96, -0.29, 187.62, 129.47)">D</text><text class="cls-2" transform="translate(183.1 143.31) rotate(117.32)">E</text><text class="cls-2" transform="matrix(-0.56, 0.83, -0.83, -0.56, 177.21, 154.07)"> </text><text class="cls-2" transform="matrix(-0.66, 0.75, -0.75, -0.66, 173.81, 159.22)">&amp;</text><text class="cls-2" transform="matrix(-0.75, 0.66, -0.66, -0.75, 165.1, 168.61)"> </text><text class="cls-2" transform="translate(160.5 172.75) rotate(145.15)">S</text><text class="cls-2" transform="translate(151 179.32) rotate(154.77)">H</text><text class="cls-2" transform="translate(138.01 185.29) rotate(165.57)">O</text><text class="cls-2" transform="translate(124.07 188.99) rotate(178.1)">W</text><text class="cls-2" transform="matrix(-0.99, -0.13, 0.13, -0.99, 104.59, 188.92)"> </text><text class="cls-2" transform="translate(98.44 188.12) rotate(-165.78)">T</text><text class="cls-2" transform="translate(87.66 185.38) rotate(-156.4)">H</text><text class="cls-2" transform="matrix(-0.83, -0.55, 0.55, -0.83, 74.65, 179.42)">E</text><text class="cls-2" transform="matrix(-0.76, -0.65, 0.65, -0.76, 64.57, 172.39)"> </text><text class="cls-2" transform="matrix(-0.68, -0.73, 0.73, -0.68, 59.86, 168.41)">T</text><text class="cls-2" transform="translate(52.62 160.64) rotate(-124.25)">A</text><text class="cls-2" transform="translate(45.22 149.5) rotate(-114.25)">B</text><text class="cls-2" transform="translate(39.85 137.02) rotate(-104.9)">S</text></svg>